<?xml version="1.0" encoding="utf-8"?>
<svg version="1.1" xmlns="http://www.w3.org/2000/svg" viewBox="0 0 25.8008 25.459">
  <defs>
    <linearGradient gradientUnits="userSpaceOnUse" x1="13.012" y1="6.233" x2="13.012" y2="18.9" id="gradient-0" spreadMethod="reflect" gradientTransform="matrix(0.898822, 0.438314, -0.238582, 0.489244, 5.825722, 3.949944)">
      <stop offset="0" style="stop-color: rgb(66, 168, 233);"/>
      <stop offset="1" style="stop-color: rgb(146, 106, 202);"/>
    </linearGradient>
  </defs>
  <g>
    <rect height="1024" opacity="0" width="1024" x="0" y="0"/>
    <path d="M4.74609 16.1328C4.61914 14.8633 5.20508 13.5059 6.13281 12.7246C5.20508 11.9238 4.59961 10.5762 4.74609 9.30664C4.75586 9.0918 4.89258 8.98438 5.13672 8.98438C6.58203 8.98438 7.7832 9.6875 8.84766 10.9473C9.69727 10.0781 10.6543 9.48242 11.6797 9.11133C11.5723 8.51562 11.3672 8.07617 10.8203 7.35352C10.6348 7.10938 10.6543 6.9043 10.8887 6.77734C13.2812 5.46875 16.6211 6.62109 17.4316 9.14062C19.4824 9.84375 21.2988 11.1621 21.2988 12.7246C21.2988 14.3848 19.2676 15.7617 17.0508 16.416C16.1719 17.6367 14.5703 18.6426 13.0859 18.8867C12.6367 18.9551 12.4219 18.75 12.4609 18.3496L12.6758 16.6309C11.2988 16.3281 9.98047 15.6543 8.84766 14.5117C7.7832 15.7812 6.58203 16.4453 5.13672 16.4648C4.89258 16.4648 4.75586 16.377 4.74609 16.1328ZM18.1738 13.1348C18.5449 13.1348 18.8379 12.8613 18.8379 12.4805C18.8379 12.1094 18.5449 11.8066 18.1738 11.8066C17.8027 11.8066 17.5098 12.1094 17.5098 12.4805C17.5098 12.8613 17.8027 13.1348 18.1738 13.1348Z" style="fill-rule: evenodd; fill: url(&quot;#gradient-0&quot;); paint-order: fill;"/>
  </g>
</svg>