<?xml version="1.0" encoding="utf-8"?>
<svg version="1.1" xmlns="http://www.w3.org/2000/svg" viewBox="0 0 25.8008 25.459">
  <defs>
    <linearGradient gradientUnits="userSpaceOnUse" x1="12.982" y1="2.332" x2="12.982" y2="22.851" id="gradient-1" gradientTransform="matrix(1, 0, 0, 1, -0.0821, 0.138)">
      <stop offset="0" style="stop-color: rgb(123, 190, 233);"/>
      <stop offset="1" style="stop-color: rgb(147, 125, 181);"/>
    </linearGradient>
    <linearGradient gradientUnits="userSpaceOnUse" x1="12.901" y1="7.594" x2="12.901" y2="17.865" id="gradient-0">
      <stop offset="0" style="stop-color: rgb(100% 100% 100%)"/>
      <stop offset="1" style="stop-color: rgb(199, 196, 196);"/>
    </linearGradient>
  </defs>
  <rect x="2.473" y="2.47" width="20.855" height="20.519" rx="4.455" ry="4.455" style="stroke-opacity: 0; paint-order: fill; stroke: rgb(66, 168, 233); fill: url(&quot;#gradient-1&quot;);"/>
  <g transform="matrix(1, 0, 0, 1, -0.000137, -0.000022)">
    <path d="M 6.443 15.622 C 6.344 14.592 6.802 13.491 7.527 12.858 C 6.802 12.209 6.329 11.116 6.443 10.086 C 6.451 9.912 6.558 9.825 6.748 9.825 C 7.878 9.825 8.816 10.395 9.648 11.417 C 10.311 10.712 11.059 10.229 11.86 9.928 C 11.776 9.445 11.616 9.089 11.189 8.503 C 11.044 8.305 11.059 8.138 11.242 8.035 C 13.111 6.974 15.72 7.909 16.354 9.952 C 17.956 10.522 19.375 11.591 19.375 12.858 C 19.375 14.204 17.788 15.321 16.056 15.851 C 15.369 16.841 14.118 17.657 12.959 17.855 C 12.608 17.91 12.44 17.744 12.47 17.419 L 12.638 16.026 C 11.562 15.78 10.533 15.234 9.648 14.307 C 8.816 15.337 7.878 15.875 6.748 15.891 C 6.558 15.891 6.451 15.82 6.443 15.622 Z M 16.933 13.191 C 17.223 13.191 17.452 12.969 17.452 12.66 C 17.452 12.359 17.223 12.114 16.933 12.114 C 16.644 12.114 16.415 12.359 16.415 12.66 C 16.415 12.969 16.644 13.191 16.933 13.191 Z" style="fill-rule: evenodd; paint-order: fill; fill: url(&quot;#gradient-0&quot;);"/>
  </g>
</svg>